<?xml version="1.0" standalone="no"?>
<!DOCTYPE svg PUBLIC "-//W3C//DTD SVG 20010904//EN"
 "http://www.w3.org/TR/2001/REC-SVG-20010904/DTD/svg10.dtd">
<svg version="1.0" xmlns="http://www.w3.org/2000/svg"
 width="700.000000pt" height="700.000000pt" viewBox="0 0 700.000000 700.000000"
 preserveAspectRatio="xMidYMid meet">
<metadata>
Created by potrace 1.14, written by Peter Selinger 2001-2017
</metadata>
<g transform="translate(0.000000,700.000000) scale(0.100000,-0.100000)"
fill="#000000" stroke="none">
<path d="M255 6991 c-89 -23 -166 -87 -214 -176 l-26 -50 0 -1755 c0 -965 4
-1791 8 -1835 17 -172 53 -385 93 -540 8 -33 19 -78 25 -99 5 -22 32 -103 59
-182 418 -1203 1454 -2084 2710 -2303 207 -36 335 -46 600 -46 330 1 554 28
855 105 953 244 1755 878 2221 1753 59 112 194 411 194 432 0 5 13 45 29 89
26 73 75 239 85 291 3 11 10 43 16 70 13 56 17 74 34 175 13 75 16 97 22 155
3 33 8 71 12 85 3 14 8 815 10 1780 3 1335 1 1768 -9 1810 -32 151 -170 253
-331 246 -54 -3 -104 -20 -338 -115 -151 -61 -438 -177 -637 -257 l-362 -146
-118 65 c-247 137 -476 232 -740 306 -124 35 -279 70 -338 77 -22 3 -47 7 -55
9 -24 7 -159 25 -245 33 -105 9 -539 9 -637 -1 -363 -34 -750 -134 -1068 -274
-119 -53 -341 -166 -382 -194 -14 -11 -30 -19 -35 -19 -11 0 -129 46 -203 78
-14 6 -119 49 -235 96 -115 46 -352 141 -524 211 -271 109 -324 127 -380 130
-37 2 -79 1 -96 -4z m3500 -666 c28 -3 68 -8 90 -10 22 -3 51 -7 65 -10 14 -2
45 -7 70 -10 232 -31 632 -167 849 -289 34 -20 65 -36 67 -36 3 0 58 -33 124
-74 191 -121 256 -128 445 -52 61 24 274 110 475 191 201 81 374 151 385 155
20 8 20 4 20 -1040 0 -577 -3 -1051 -6 -1054 -3 -3 -237 -6 -520 -6 l-515 -1
-52 -24 c-101 -47 -147 -121 -147 -235 1 -90 23 -139 87 -194 72 -62 81 -63
618 -64 267 -1 497 -2 511 -2 l26 0 -4 -127 c-3 -111 -6 -156 -12 -184 0 -4
-356 -7 -790 -7 -784 0 -789 0 -837 -22 -56 -24 -87 -51 -119 -100 -24 -39
-46 -121 -39 -154 19 -108 70 -179 156 -216 l53 -24 742 0 743 -1 -5 -25 c-9
-53 -98 -290 -109 -291 -6 0 -195 -2 -421 -3 -452 -3 -445 -2 -520 -67 -109
-96 -113 -267 -10 -371 71 -72 102 -78 411 -78 145 0 264 -2 264 -5 0 -14 -88
-130 -183 -243 -171 -202 -374 -383 -609 -540 -42 -29 -82 -52 -88 -52 -5 0
-10 -3 -10 -7 0 -5 -10 -13 -23 -19 -12 -7 -83 -43 -157 -81 -137 -70 -179
-88 -350 -150 -121 -43 -299 -90 -450 -118 -34 -6 -140 -18 -255 -29 -82 -8
-382 -10 -440 -2 -22 3 -74 8 -115 11 -41 4 -77 8 -80 10 -3 2 -26 6 -50 10
-155 22 -349 73 -555 149 -383 139 -798 425 -1101 757 -71 78 -234 289 -234
303 0 3 127 6 283 8 317 3 321 4 396 80 99 98 92 274 -14 366 -74 66 -67 65
-530 66 l-419 2 -19 49 c-28 77 -87 254 -87 263 0 4 334 7 743 8 l742 1 52 22
c57 25 117 84 139 136 19 46 21 121 5 177 -22 79 -105 157 -185 174 -11 3
-373 5 -803 5 -431 1 -783 4 -784 7 0 4 -2 16 -5 27 -2 11 -5 80 -7 153 -3 92
-1 132 7 132 6 1 236 1 511 2 559 1 561 1 637 68 62 54 91 124 86 205 -7 106
-56 175 -156 221 l-53 24 -517 0 -517 0 0 1050 c0 829 3 1050 12 1050 7 0 50
-15 95 -34 46 -19 225 -91 398 -160 173 -70 329 -133 345 -140 143 -62 222
-75 310 -49 27 8 91 41 140 72 112 72 186 113 295 167 75 36 102 49 185 85 32
14 286 99 309 103 12 3 48 11 81 20 33 8 71 17 85 20 14 3 48 9 75 14 28 6 74
13 104 17 30 4 63 9 75 11 12 2 66 7 121 10 55 4 101 8 103 9 5 4 320 -4 367
-10z"/>
<path d="M2924 3352 c-77 -12 -81 -162 -8 -334 148 -352 586 -492 915 -292
116 70 227 205 269 330 34 97 47 205 31 247 -20 52 -14 52 -621 52 -311 0
-575 -1 -586 -3z"/>
</g>
</svg>
